<mxfile host="app.diagrams.net" modified="2021-07-02T03:29:34.530Z" agent="5.0 (X11; Linux x86_64) AppleWebKit/537.36 (KHTML, like Gecko) Chrome/83.0.4103.116 Safari/537.36" etag="rH_dOQv9Yy5tkGX7k32j" version="14.8.3" type="github">
  <diagram id="8qPLRy9dRH75e9D9rNFp" name="Page-1">
    <mxGraphModel dx="1422" dy="693" grid="1" gridSize="10" guides="1" tooltips="1" connect="1" arrows="1" fold="1" page="1" pageScale="1" pageWidth="827" pageHeight="1169" math="0" shadow="0">
      <root>
        <mxCell id="0" />
        <mxCell id="1" parent="0" />
        <mxCell id="54dJCSdVns1m2ge1cCNw-12" value="" style="rounded=0;whiteSpace=wrap;html=1;fillColor=#d5e8d4;strokeColor=#82b366;" vertex="1" parent="1">
          <mxGeometry x="10" y="20" width="820" height="230" as="geometry" />
        </mxCell>
        <mxCell id="54dJCSdVns1m2ge1cCNw-1" value="应用" style="rounded=0;whiteSpace=wrap;html=1;labelBackgroundColor=#FFFFFF;" vertex="1" parent="1">
          <mxGeometry x="500" y="40" width="120" height="60" as="geometry" />
        </mxCell>
        <mxCell id="54dJCSdVns1m2ge1cCNw-4" value="libalsa" style="rounded=0;whiteSpace=wrap;html=1;fillColor=#FFFFFF;" vertex="1" parent="1">
          <mxGeometry x="500" y="180" width="120" height="60" as="geometry" />
        </mxCell>
        <mxCell id="54dJCSdVns1m2ge1cCNw-5" value="/dev/snd/controlCX&lt;br&gt;/dev/snd/pcmXXXc&lt;br&gt;/dev/snd/pcmXXXp&lt;br&gt;音频设备节点" style="rounded=0;whiteSpace=wrap;html=1;align=left;" vertex="1" parent="1">
          <mxGeometry x="60" y="180" width="180" height="60" as="geometry" />
        </mxCell>
        <mxCell id="54dJCSdVns1m2ge1cCNw-15" value="用户空间" style="text;html=1;strokeColor=none;fillColor=none;align=center;verticalAlign=middle;whiteSpace=wrap;rounded=0;labelBackgroundColor=#D5E8D4;fontColor=#FF0000;" vertex="1" parent="1">
          <mxGeometry x="700" y="120" width="80" height="30" as="geometry" />
        </mxCell>
        <mxCell id="54dJCSdVns1m2ge1cCNw-16" value="" style="rounded=0;whiteSpace=wrap;html=1;strokeColor=#82b366;fillColor=#FFE6CC;" vertex="1" parent="1">
          <mxGeometry x="10" y="270" width="820" height="330" as="geometry" />
        </mxCell>
        <mxCell id="54dJCSdVns1m2ge1cCNw-18" value="&lt;span style=&quot;background-color: rgb(255 , 230 , 204)&quot;&gt;内核空间&lt;/span&gt;" style="text;html=1;strokeColor=none;fillColor=none;align=center;verticalAlign=middle;whiteSpace=wrap;rounded=0;labelBackgroundColor=#D5E8D4;fontColor=#FF0000;" vertex="1" parent="1">
          <mxGeometry x="700" y="420" width="80" height="30" as="geometry" />
        </mxCell>
        <mxCell id="54dJCSdVns1m2ge1cCNw-21" value="字符设备驱动程序" style="rounded=0;whiteSpace=wrap;html=1;align=center;" vertex="1" parent="1">
          <mxGeometry x="60" y="330" width="180" height="40" as="geometry" />
        </mxCell>
        <mxCell id="54dJCSdVns1m2ge1cCNw-26" value="" style="endArrow=classic;html=1;labelBackgroundColor=#FFD966;fontColor=#FF0000;fillColor=#ffffff;entryX=1;entryY=0.5;entryDx=0;entryDy=0;" edge="1" parent="1" source="54dJCSdVns1m2ge1cCNw-4" target="54dJCSdVns1m2ge1cCNw-5">
          <mxGeometry width="50" height="50" relative="1" as="geometry">
            <mxPoint x="390" y="400" as="sourcePoint" />
            <mxPoint x="240" y="210" as="targetPoint" />
          </mxGeometry>
        </mxCell>
        <mxCell id="54dJCSdVns1m2ge1cCNw-28" value="&lt;meta charset=&quot;utf-8&quot;&gt;&lt;span style=&quot;color: rgb(0, 0, 0); font-family: helvetica; font-size: 11px; font-style: normal; font-weight: 400; letter-spacing: normal; text-align: center; text-indent: 0px; text-transform: none; word-spacing: 0px; display: inline; float: none;&quot;&gt;文件接口调用&lt;/span&gt;&lt;br style=&quot;color: rgb(0, 0, 0); font-family: helvetica; font-size: 11px; font-style: normal; font-weight: 400; letter-spacing: normal; text-align: center; text-indent: 0px; text-transform: none; word-spacing: 0px;&quot;&gt;&lt;span style=&quot;color: rgb(0, 0, 0); font-family: helvetica; font-size: 11px; font-style: normal; font-weight: 400; letter-spacing: normal; text-align: center; text-indent: 0px; text-transform: none; word-spacing: 0px; display: inline; float: none;&quot;&gt;（ioctl/read/write）&lt;/span&gt;" style="text;html=1;strokeColor=none;fillColor=none;align=center;verticalAlign=middle;whiteSpace=wrap;rounded=0;labelBackgroundColor=#D5E8D4;fontColor=#FF0000;" vertex="1" parent="1">
          <mxGeometry x="280" y="180" width="80" height="20" as="geometry" />
        </mxCell>
        <mxCell id="54dJCSdVns1m2ge1cCNw-29" value="" style="endArrow=classic;html=1;labelBackgroundColor=#FFD966;fontColor=#FF0000;fillColor=#ffffff;entryX=0.5;entryY=0;entryDx=0;entryDy=0;exitX=0.5;exitY=1;exitDx=0;exitDy=0;" edge="1" parent="1" source="54dJCSdVns1m2ge1cCNw-1" target="54dJCSdVns1m2ge1cCNw-4">
          <mxGeometry width="50" height="50" relative="1" as="geometry">
            <mxPoint x="570" y="200" as="sourcePoint" />
            <mxPoint x="620" y="150" as="targetPoint" />
          </mxGeometry>
        </mxCell>
        <mxCell id="54dJCSdVns1m2ge1cCNw-30" value="&lt;font color=&quot;#000000&quot; face=&quot;helvetica&quot;&gt;&lt;span style=&quot;font-size: 11px&quot;&gt;调用&lt;/span&gt;&lt;/font&gt;" style="text;html=1;strokeColor=none;fillColor=none;align=center;verticalAlign=middle;whiteSpace=wrap;rounded=0;labelBackgroundColor=#D5E8D4;fontColor=#FF0000;" vertex="1" parent="1">
          <mxGeometry x="570" y="125" width="40" height="20" as="geometry" />
        </mxCell>
        <mxCell id="54dJCSdVns1m2ge1cCNw-31" value="" style="endArrow=classic;html=1;labelBackgroundColor=#FFD966;fontColor=#FF0000;fillColor=#ffffff;entryX=0.25;entryY=0;entryDx=0;entryDy=0;exitX=0.25;exitY=1;exitDx=0;exitDy=0;" edge="1" parent="1" source="54dJCSdVns1m2ge1cCNw-5" target="54dJCSdVns1m2ge1cCNw-21">
          <mxGeometry width="50" height="50" relative="1" as="geometry">
            <mxPoint x="160" y="240" as="sourcePoint" />
            <mxPoint x="129.5" y="330" as="targetPoint" />
          </mxGeometry>
        </mxCell>
        <mxCell id="54dJCSdVns1m2ge1cCNw-32" value="&lt;font face=&quot;helvetica&quot;&gt;&lt;span style=&quot;font-size: 11px&quot;&gt;调用&lt;/span&gt;&lt;/font&gt;" style="text;html=1;strokeColor=none;fillColor=none;align=center;verticalAlign=middle;whiteSpace=wrap;rounded=0;labelBackgroundColor=#FFE6CC;" vertex="1" parent="1">
          <mxGeometry x="105" y="280" width="40" height="20" as="geometry" />
        </mxCell>
        <mxCell id="54dJCSdVns1m2ge1cCNw-34" value="" style="rounded=0;whiteSpace=wrap;html=1;align=center;verticalAlign=bottom;" vertex="1" parent="1">
          <mxGeometry x="60" y="440" width="330" height="130" as="geometry" />
        </mxCell>
        <mxCell id="54dJCSdVns1m2ge1cCNw-35" value="控制设备&lt;br&gt;control.c" style="rounded=0;whiteSpace=wrap;html=1;labelBackgroundColor=#FFFFFF;fillColor=#FFFFFF;align=center;" vertex="1" parent="1">
          <mxGeometry x="110" y="460" width="90" height="60" as="geometry" />
        </mxCell>
        <mxCell id="54dJCSdVns1m2ge1cCNw-36" value="数据设备&lt;br&gt;pcm.c" style="rounded=0;whiteSpace=wrap;html=1;labelBackgroundColor=#FFFFFF;fillColor=#FFFFFF;align=center;" vertex="1" parent="1">
          <mxGeometry x="250" y="460" width="90" height="60" as="geometry" />
        </mxCell>
        <mxCell id="54dJCSdVns1m2ge1cCNw-37" value="ALSA驱动&lt;br&gt;（实现数据和控制）" style="rounded=0;whiteSpace=wrap;html=1;labelBackgroundColor=none;fillColor=#FFFFFF;align=center;verticalAlign=middle;" vertex="1" parent="1">
          <mxGeometry x="290" y="310" width="520" height="60" as="geometry" />
        </mxCell>
        <mxCell id="54dJCSdVns1m2ge1cCNw-38" value="DMA控制器和时钟驱动&lt;br&gt;（配置DMA和时钟）" style="rounded=0;whiteSpace=wrap;html=1;labelBackgroundColor=none;fillColor=#FFFFFF;align=center;verticalAlign=middle;" vertex="1" parent="1">
          <mxGeometry x="490" y="480" width="140" height="60" as="geometry" />
        </mxCell>
        <mxCell id="54dJCSdVns1m2ge1cCNw-39" value="" style="rounded=0;whiteSpace=wrap;html=1;strokeColor=#82b366;labelBackgroundColor=#E6E6E6;fillColor=#E6E6E6;" vertex="1" parent="1">
          <mxGeometry x="10" y="620" width="820" height="120" as="geometry" />
        </mxCell>
        <mxCell id="54dJCSdVns1m2ge1cCNw-40" value="&lt;span style=&quot;background-color: rgb(255 , 230 , 204)&quot;&gt;硬件层&lt;/span&gt;" style="text;html=1;strokeColor=none;fillColor=none;align=center;verticalAlign=middle;whiteSpace=wrap;rounded=0;labelBackgroundColor=#D5E8D4;fontColor=#FF0000;" vertex="1" parent="1">
          <mxGeometry x="700" y="665" width="80" height="30" as="geometry" />
        </mxCell>
        <mxCell id="54dJCSdVns1m2ge1cCNw-41" value="音频设备&lt;br&gt;（蓝牙耳机，ac97接口耳机，麦克风，喇叭）" style="rounded=0;whiteSpace=wrap;html=1;labelBackgroundColor=none;fillColor=#FFFFFF;align=center;verticalAlign=middle;" vertex="1" parent="1">
          <mxGeometry x="219" y="640" width="390" height="80" as="geometry" />
        </mxCell>
        <mxCell id="54dJCSdVns1m2ge1cCNw-43" value="" style="endArrow=classic;html=1;labelBackgroundColor=#FFD966;fontColor=#FF0000;fillColor=#ffffff;exitX=0.25;exitY=1;exitDx=0;exitDy=0;" edge="1" parent="1" source="54dJCSdVns1m2ge1cCNw-21">
          <mxGeometry width="50" height="50" relative="1" as="geometry">
            <mxPoint x="115" y="250" as="sourcePoint" />
            <mxPoint x="105" y="439" as="targetPoint" />
          </mxGeometry>
        </mxCell>
        <mxCell id="54dJCSdVns1m2ge1cCNw-44" value="&lt;font face=&quot;helvetica&quot;&gt;&lt;span style=&quot;font-size: 11px&quot;&gt;调用&lt;/span&gt;&lt;/font&gt;" style="text;html=1;strokeColor=none;fillColor=none;align=center;verticalAlign=middle;whiteSpace=wrap;rounded=0;labelBackgroundColor=#FFE6CC;" vertex="1" parent="1">
          <mxGeometry x="105" y="400" width="40" height="20" as="geometry" />
        </mxCell>
        <mxCell id="54dJCSdVns1m2ge1cCNw-45" value="" style="endArrow=classic;html=1;labelBackgroundColor=#FFD966;fontColor=#000000;fillColor=#ffffff;exitX=0.25;exitY=0;exitDx=0;exitDy=0;" edge="1" parent="1" source="54dJCSdVns1m2ge1cCNw-34">
          <mxGeometry width="50" height="50" relative="1" as="geometry">
            <mxPoint x="180" y="442" as="sourcePoint" />
            <mxPoint x="143" y="372" as="targetPoint" />
          </mxGeometry>
        </mxCell>
        <mxCell id="54dJCSdVns1m2ge1cCNw-46" value="&lt;font face=&quot;helvetica&quot;&gt;&lt;span style=&quot;font-size: 11px&quot;&gt;注册&lt;/span&gt;&lt;/font&gt;" style="text;html=1;strokeColor=none;fillColor=none;align=center;verticalAlign=middle;whiteSpace=wrap;rounded=0;labelBackgroundColor=#FFE6CC;" vertex="1" parent="1">
          <mxGeometry x="145" y="400" width="40" height="20" as="geometry" />
        </mxCell>
        <mxCell id="54dJCSdVns1m2ge1cCNw-49" value="" style="endArrow=classic;html=1;labelBackgroundColor=#FFD966;fontColor=#000000;fillColor=#ffffff;exitX=0.5;exitY=1;exitDx=0;exitDy=0;" edge="1" parent="1" source="54dJCSdVns1m2ge1cCNw-38">
          <mxGeometry width="50" height="50" relative="1" as="geometry">
            <mxPoint x="560" y="610" as="sourcePoint" />
            <mxPoint x="561" y="641" as="targetPoint" />
          </mxGeometry>
        </mxCell>
        <mxCell id="54dJCSdVns1m2ge1cCNw-50" value="" style="endArrow=classic;html=1;labelBackgroundColor=#FFD966;fontColor=#000000;fillColor=#ffffff;" edge="1" parent="1" target="54dJCSdVns1m2ge1cCNw-38">
          <mxGeometry width="50" height="50" relative="1" as="geometry">
            <mxPoint x="558" y="370" as="sourcePoint" />
            <mxPoint x="600" y="420" as="targetPoint" />
          </mxGeometry>
        </mxCell>
        <mxCell id="54dJCSdVns1m2ge1cCNw-51" value="&lt;font face=&quot;helvetica&quot;&gt;&lt;span style=&quot;font-size: 11px&quot;&gt;注册&lt;/span&gt;&lt;/font&gt;" style="text;html=1;strokeColor=none;fillColor=none;align=center;verticalAlign=middle;whiteSpace=wrap;rounded=0;labelBackgroundColor=#FFE6CC;" vertex="1" parent="1">
          <mxGeometry x="560" y="420" width="40" height="20" as="geometry" />
        </mxCell>
        <mxCell id="54dJCSdVns1m2ge1cCNw-52" value="" style="endArrow=classic;html=1;labelBackgroundColor=#FFD966;fontColor=#000000;fillColor=#ffffff;" edge="1" parent="1">
          <mxGeometry width="50" height="50" relative="1" as="geometry">
            <mxPoint x="305" y="438" as="sourcePoint" />
            <mxPoint x="305" y="370" as="targetPoint" />
          </mxGeometry>
        </mxCell>
        <mxCell id="54dJCSdVns1m2ge1cCNw-55" value="&lt;font face=&quot;helvetica&quot;&gt;&lt;span style=&quot;font-size: 11px&quot;&gt;调用&lt;/span&gt;&lt;/font&gt;" style="text;html=1;strokeColor=none;fillColor=none;align=center;verticalAlign=middle;whiteSpace=wrap;rounded=0;labelBackgroundColor=#FFE6CC;" vertex="1" parent="1">
          <mxGeometry x="300" y="400" width="40" height="20" as="geometry" />
        </mxCell>
        <mxCell id="54dJCSdVns1m2ge1cCNw-57" value="&lt;span style=&quot;&quot;&gt;ALSA核心（sound/core）&lt;/span&gt;" style="text;html=1;strokeColor=none;fillColor=none;align=center;verticalAlign=middle;whiteSpace=wrap;rounded=0;labelBackgroundColor=#FFFFFF;fontColor=#000000;" vertex="1" parent="1">
          <mxGeometry x="165" y="530" width="120" height="20" as="geometry" />
        </mxCell>
      </root>
    </mxGraphModel>
  </diagram>
</mxfile>
